#!OML:ASF F:\VICON\USERDATA\INSTALL\rory3\rory3.ASF
:FULLY-SPECIFIED
:DEGREES
448
root 0.397175 18.209 44.0529 -6.66157 -3.10079 6.44043
lowerback 16.4573 -0.717209 -7.18907
upperback 0.248299 -2.2238 1.06123
thorax -8.67619 -0.74163 5.76371
lowerneck -10.5419 0.292999 -1.48327
upperneck 31.2532 1.32697 -2.02896
head 11.9978 0.144293 -0.333396
rclavicle -6.41081e-015 1.66979e-014
rhumerus -37.863 -10.864 -78.2649
rradius 30.419
rwrist 2.67246
rhand -13.0376 8.09193
rfingers 7.12502
rthumb 13.0569 -21.4794
lclavicle -6.41081e-015 1.66979e-014
lhumerus -35.9003 0.960824 82.8404
lradius 44.9975
lwrist 8.65261
lhand -13.596 51.7695
lfingers 7.12502
lthumb 12.5186 81.3745
rfemur -24.6643 3.2845 14.502
rtibia 28.8295
rfoot -15.7355 -16.3286
rtoes 5.59224
lfemur 8.22246 -3.31227 -31.8094
ltibia 15.1744
lfoot -11.999 1.65023
ltoes -18.2094
449
root 0.38179 18.2131 44.1836 -6.52116 -3.14832 6.71566
lowerback 16.5416 -0.64643 -7.31884
upperback -0.248282 -2.19055 0.954541
thorax -9.27827 -0.678732 5.73159
lowerneck -9.15293 0.236416 -1.49174
upperneck 31.0315 1.21334 -2.07568
head 11.6219 0.0983313 -0.364035
rclavicle 4.07881e-014 5.56597e-015
rhumerus -38.9507 -10.7149 -78.0849
rradius 30.7922
rwrist 2.59414
rhand -12.8451 7.86057
rfingers 7.12502
rthumb 13.2425 -21.6988
lclavicle 4.07881e-014 5.56597e-015
lhumerus -36.6606 0.446952 82.9836
lradius 45.2536
lwrist 9.12637
lhand -14.3247 51.8675
lfingers 7.12502
lthumb 11.816 81.5141
rfemur -24.7776 4.07658 13.906
rtibia 26.6777
rfoot -16.1152 -16.3929
rtoes 2.51305
lfemur 9.33537 -3.27554 -32.1242
ltibia 13.6754
lfoot -11.4886 1.65103
ltoes -20.5146
450
root 0.356863 18.2562 44.306 -6.26893 -3.35146 6.3559
lowerback 16.2884 -0.674603 -7.05982
upperback -0.00634477 -2.14144 1.03558
thorax -8.87956 -0.691433 5.64322
lowerneck -10.2436 0.215187 -1.41067
upperneck 31.2646 1.15882 -1.9409
head 11.9385 0.0894616 -0.335511
rclavicle -9.01985e-015 1.19271e-014
rhumerus -38.3019 -10.7036 -78.4296
rradius 30.7943
rwrist 2.60674
rhand -12.7475 8.03232
rfingers 7.12502
rthumb 13.3366 -21.5209
lclavicle -9.01985e-015 1.19271e-014
lhumerus -35.8224 0.410806 82.8146
lradius 45.3636
lwrist 9.21956
lhand -14.4831 51.6523
lfingers 7.12502
lthumb 11.6632 81.3077
rfemur -24.8284 5.47353 13.947
rtibia 24.4482
rfoot -16.7033 -16.7537
rtoes 2.86789
lfemur 9.53764 -3.48336 -31.6791
ltibia 12.979
lfoot -10.9442 1.48071
ltoes -13.3463
451
root 0.332496 18.2589 44.4719 -6.33398 -3.45812 6.2636
lowerback 15.9647 -0.705542 -6.99216
upperback 0.274927 -2.13467 1.04126
thorax -8.39034 -0.722235 5.58708
lowerneck -11.1368 0.228434 -1.28509
upperneck 31.3675 1.19482 -2.0031
head 12.1674 0.105596 -0.376198
rclavicle 7.65321e-015 -1.03368e-014
rhumerus -37.8468 -10.6616 -78.6745
rradius 30.5463
rwrist 2.69551
rhand -12.8394 8.34856
rfingers 7.12502
rthumb 13.248 -21.2104
lclavicle 7.65321e-015 -1.03368e-014
lhumerus -35.2462 0.434834 82.721
lradius 45.4814
lwrist 9.39695
lhand -14.4377 51.6557
lfingers 7.12502
lthumb 11.707 81.3086
rfemur -24.4455 6.274 13.8039
rtibia 22.4818
rfoot -17.3492 -16.6289
rtoes 2.72419
lfemur 10.3861 -3.25336 -31.5549
ltibia 12.6364
lfoot -11.1337 1.49173
ltoes -12.7449
452
root 0.28706 18.2618 44.6049 -6.24664 -4.10542 5.23077
lowerback 15.5464 -0.632875 -6.30582
upperback 0.70902 -1.84378 1.36713
thorax -7.73207 -0.643059 5.4581
lowerneck -12.1169 0.301585 -1.13142
upperneck 31.3846 1.29288 -2.01335
head 12.3814 0.160014 -0.392794
rclavicle -1.39646e-014 2.3059e-014
rhumerus -36.9877 -10.8487 -78.9653
rradius 30.2317
rwrist 2.98141
rhand -12.9571 8.20048
rfingers 7.12502
rthumb 13.1346 -21.3659
lclavicle -1.39646e-014 2.3059e-014
lhumerus -34.3461 0.577518 82.5668
lradius 45.6455
lwrist 9.41892
lhand -13.9585 51.8737
lfingers 7.12502
lthumb 12.1691 81.4997
rfemur -24.4432 8.85987 14.5359
rtibia 20.9396
rfoot -18.5444 -17.7082
rtoes 3.08018
lfemur 10.9311 -3.10065 -30.2929
ltibia 12.3394
lfoot -11.2743 1.71002
ltoes -11.3861
453
root 0.28858 18.2474 44.7168 -6.02464 -3.69805 5.97853
lowerback 14.8727 -0.770436 -6.65317
upperback 1.12306 -2.05221 1.04772
thorax -6.87874 -0.786313 5.31423
lowerneck -12.5874 0.297849 -1.15401
upperneck 31.0263 1.25237 -1.86605
head 12.3321 0.16062 -0.335688
rclavicle -1.24737e-014 0
rhumerus -35.9175 -11.0794 -79.2685
rradius 29.9676
rwrist 2.97371
rhand -13.0584 8.12734
rfingers 7.12502
rthumb 13.0369 -21.4453
lclavicle -1.24737e-014 0
lhumerus -33.2443 0.603135 82.4849
lradius 45.6877
lwrist 9.25323
lhand -13.4705 52.4175
lfingers 7.12502
lthumb 12.6396 82.0151
rfemur -24.8815 8.2025 13.4299
rtibia 20.2344
rfoot -19.003 -16.7838
rtoes 1.98985
lfemur 11.3047 -3.08673 -31.1166
ltibia 11.9025
lfoot -11.3635 1.33535
ltoes -10.6639
454
root 0.27395 18.2274 44.8452 -5.9101 -3.66153 6.80595
lowerback 16.0153 -0.760898 -7.42675
upperback 0.0509727 -2.31877 0.8446
thorax -8.63123 -0.779216 5.66908
lowerneck -11.2626 0.284749 -1.43517
upperneck 31.121 1.22877 -1.74998
head 12.0908 0.13613 -0.248675
rclavicle -6.70898e-015 -1.59028e-015
rhumerus -37.1919 -10.2501 -79.1682
rradius 29.4518
rwrist 2.81845
rhand -13.244 8.57386
rfingers 7.12502
rthumb 12.8579 -21.0101
lclavicle -6.70898e-015 -1.59028e-015
lhumerus -34.9201 0.546684 82.4208
lradius 45.9895
lwrist 9.38054
lhand -13.6713 52.5721
lfingers 7.12502
lthumb 12.4461 82.1815
rfemur -25.2332 7.39744 12.5881
rtibia 19.8007
rfoot -18.6726 -15.6517
rtoes 0.461165
lfemur 11.54 -2.86522 -31.9842
ltibia 12.0045
lfoot -11.6455 1.29357
ltoes -11.9494
